<mxfile host="65bd71144e">
    <diagram id="ArwaMPCbaQ-QvOUXKjNU" name="Page-1">
        <mxGraphModel dx="777" dy="751" grid="1" gridSize="10" guides="1" tooltips="1" connect="1" arrows="1" fold="1" page="1" pageScale="1" pageWidth="850" pageHeight="1100" background="#ffffff" math="0" shadow="0">
            <root>
                <mxCell id="0"/>
                <mxCell id="1" parent="0"/>
                <mxCell id="2" value="Actor" style="shape=umlActor;verticalLabelPosition=bottom;verticalAlign=top;html=1;outlineConnect=0;strokeColor=#000000;" vertex="1" parent="1">
                    <mxGeometry x="40" y="60" width="30" height="60" as="geometry"/>
                </mxCell>
                <mxCell id="3" value="Actor" style="shape=umlActor;verticalLabelPosition=bottom;verticalAlign=top;html=1;outlineConnect=0;strokeColor=#000000;" vertex="1" parent="1">
                    <mxGeometry x="40" y="190" width="30" height="60" as="geometry"/>
                </mxCell>
                <mxCell id="4" value="" style="whiteSpace=wrap;html=1;aspect=fixed;strokeColor=#000000;fillColor=none;strokeWidth=4;" vertex="1" parent="1">
                    <mxGeometry x="160" y="90" width="120" height="120" as="geometry"/>
                </mxCell>
                <mxCell id="5" value="" style="whiteSpace=wrap;html=1;aspect=fixed;strokeColor=#000000;strokeWidth=4;fillColor=none;" vertex="1" parent="1">
                    <mxGeometry x="400" y="90" width="120" height="120" as="geometry"/>
                </mxCell>
                <mxCell id="6" value="Actor" style="shape=umlActor;verticalLabelPosition=bottom;verticalAlign=top;html=1;outlineConnect=0;strokeColor=#000000;strokeWidth=1;" vertex="1" parent="1">
                    <mxGeometry x="660" y="130" width="30" height="60" as="geometry"/>
                </mxCell>
            </root>
        </mxGraphModel>
    </diagram>
</mxfile>